<svg xmlns="http://www.w3.org/2000/svg" x="0px" y="0px" width="100" height="100" viewBox="0 0 64 64">
<path fill="#acb7d0" d="M57,13v38c0,3.31-2.69,6-6,6H13c-3.31,0-6-2.69-6-6V13c0-3.31,2.69-6,6-6h38C54.31,7,57,9.69,57,13z"></path><path fill="#8d6c9f" d="M32,57.5c-0.276,0-0.5-0.224-0.5-0.5V7c0-0.276,0.224-0.5,0.5-0.5s0.5,0.224,0.5,0.5v50	C32.5,57.276,32.276,57.5,32,57.5z"></path><path fill="#8d6c9f" d="M23,57.5c-0.276,0-0.5-0.224-0.5-0.5V7c0-0.276,0.224-0.5,0.5-0.5s0.5,0.224,0.5,0.5v50	C23.5,57.276,23.276,57.5,23,57.5z"></path><path fill="#8d6c9f" d="M50,57.5c-0.276,0-0.5-0.224-0.5-0.5V7c0-0.276,0.224-0.5,0.5-0.5s0.5,0.224,0.5,0.5v50	C50.5,57.276,50.276,57.5,50,57.5z"></path><path fill="#8d6c9f" d="M14,57.5c-0.276,0-0.5-0.224-0.5-0.5V7c0-0.276,0.224-0.5,0.5-0.5s0.5,0.224,0.5,0.5v50	C14.5,57.276,14.276,57.5,14,57.5z"></path><path fill="#8d6c9f" d="M32,38c-0.195,0-0.389-0.058-0.555-0.168l-3-2c-0.161-0.107-0.288-0.26-0.364-0.438l-2.115-4.934	l-2.058,4.459c-0.131,0.282-0.385,0.488-0.688,0.557c-0.299,0.069-0.621-0.008-0.86-0.207l-2.191-1.826L17.8,36.6	c-0.122,0.163-0.291,0.285-0.483,0.349l-3,1c-0.192,0.064-0.398,0.068-0.591,0.014l-7-2c-0.531-0.152-0.839-0.706-0.688-1.236	c0.152-0.532,0.711-0.832,1.236-0.688l6.703,1.915l2.41-0.803L19.2,31.4c0.164-0.22,0.411-0.362,0.684-0.394	c0.276-0.033,0.547,0.05,0.757,0.225l1.998,1.666l2.453-5.316c0.167-0.359,0.523-0.545,0.922-0.581	c0.396,0.006,0.75,0.243,0.905,0.606l2.883,6.727l1.88,1.253l2.461-4.101c0.15-0.251,0.404-0.424,0.693-0.472l2.418-0.403	l2.803-7.943c0.138-0.389,0.499-0.653,0.91-0.666c0.449-0.049,0.79,0.227,0.952,0.605l2.526,5.895l2-1.333	c0.229-0.151,0.507-0.203,0.774-0.144c0.267,0.06,0.497,0.227,0.638,0.461l2.102,3.502l2.163-3.966	c0.057-0.104,0.131-0.196,0.22-0.274l4-3.5c0.414-0.363,1.045-0.323,1.411,0.095c0.363,0.415,0.321,1.047-0.095,1.411l-3.865,3.382	l-2.915,5.344c-0.172,0.315-0.499,0.514-0.857,0.521c-0.337,0.009-0.693-0.177-0.878-0.485l-2.461-4.101l-2.127,1.418	c-0.247,0.165-0.554,0.211-0.84,0.127c-0.284-0.085-0.517-0.292-0.634-0.565l-1.991-4.645l-2.146,6.084	c-0.121,0.343-0.42,0.594-0.779,0.653L35.62,32.91l-2.763,4.604c-0.141,0.234-0.371,0.401-0.638,0.461	C32.146,37.992,32.073,38,32,38z"></path><path fill="#ace3ff" d="M41,57.5c-0.276,0-0.5-0.224-0.5-0.5V7c0-0.276,0.224-0.5,0.5-0.5s0.5,0.224,0.5,0.5v50	C41.5,57.276,41.276,57.5,41,57.5z"></path><path fill="#8d6c9f" d="M51,58H13c-3.859,0-7-3.141-7-7V13c0-3.859,3.141-7,7-7h38c3.859,0,7,3.141,7,7v38	C58,54.859,54.859,58,51,58z M13,8c-2.757,0-5,2.243-5,5v38c0,2.757,2.243,5,5,5h38c2.757,0,5-2.243,5-5V13c0-2.757-2.243-5-5-5H13z"></path><circle cx="41" cy="23" r="3" fill="#ace3ff"></circle><path fill="#8d6c9f" d="M41,27c-2.206,0-4-1.794-4-4s1.794-4,4-4s4,1.794,4,4S43.206,27,41,27z M41,21c-1.103,0-2,0.897-2,2 s0.897,2,2,2s2-0.897,2-2S42.103,21,41,21z"></path>
</svg>